<svg width="0" height="0" class="hidden">
  <symbol xmlns="http://www.w3.org/2000/svg" viewBox="0 0 21 20" id="instagram-2">
    <path fill="#ababab" fill-rule="nonzero" d="M14.464 0a6.25 6.25 0 0 1 6.25 6.25v7.5a6.25 6.25 0 0 1-6.25 6.25h-7.5a6.25 6.25 0 0 1-6.25-6.25v-7.5A6.25 6.25 0 0 1 6.964 0h7.5zm4.375 13.75v-7.5a4.38 4.38 0 0 0-4.375-4.375h-7.5A4.38 4.38 0 0 0 2.59 6.25v7.5a4.38 4.38 0 0 0 4.375 4.375h7.5a4.38 4.38 0 0 0 4.375-4.375zM10.714 5a5 5 0 1 1 0 10 5 5 0 0 1 0-10zm0 8.125A3.13 3.13 0 0 0 13.84 10a3.129 3.129 0 0 0-3.125-3.125A3.129 3.129 0 0 0 7.59 10a3.13 3.13 0 0 0 3.125 3.125zm5.375-7.834a.666.666 0 1 1 0-1.332.666.666 0 0 1 0 1.332z"></path>
  </symbol>
  <symbol xmlns="http://www.w3.org/2000/svg" viewBox="0 0 11 20" id="facebook-2">
    <path fill="#ababab" fill-rule="nonzero" d="M6.393 6.875v-2.5c0-.69.56-1.25 1.25-1.25h1.25V0h-2.5a3.75 3.75 0 0 0-3.75 3.75v3.125h-2.5V10h2.5v10h3.75V10h2.5l1.25-3.125h-3.75z"></path>
  </symbol>
  <symbol xmlns="http://www.w3.org/2000/svg" viewBox="0 0 23 19" id="telegram-2">
    <path fill="#ABABAB" d="M9.025 12.522l-.38 5.305c.544 0 .78-.232 1.062-.51l2.552-2.418 5.289 3.84c.97.535 1.653.253 1.914-.885L22.934 1.73C23.243.307 22.417-.249 21.472.1L1.068 7.844C-.325 8.38-.304 9.15.83 9.498l5.216 1.609L18.164 3.59c.57-.374 1.089-.167.662.207l-9.801 8.724z"></path>
  </symbol>
  <symbol xmlns="http://www.w3.org/2000/svg" viewBox="0 0 41.21 37.46" id="linkedin-2">
    <defs></defs>
    <title>Asset 25</title>
    <g id="Layer_2">
      <g id="Layer_1-2">
        <g id="LinkedIn">
          <rect x="1.04" y="12.01" width="8.03" height="25.45"></rect>
          <path d="M31,11.77c-4.6,0-7.48,2.49-8,4.24V12H14c.12,2.12,0,25.45,0,25.45h9V23.69a5.8,5.8,0,0,1,.2-2.08,4.6,4.6,0,0,1,4.35-3.12c3.13,0,4.56,2.35,4.56,5.8V37.46h9.11V23.31C41.21,15.43,36.73,11.77,31,11.77Z"></path>
          <path d="M4.91,0C1.94,0,0,1.9,0,4.42S1.89,8.83,4.79,8.83h.06c3,0,4.9-2,4.9-4.42S7.87,0,4.91,0Z"></path>
        </g>
      </g>
    </g>
  </symbol>
  <symbol xmlns="http://www.w3.org/2000/svg" viewBox="0 0 23 19" id="twitter-2">
    <path fill="#ababab" fill-rule="nonzero" d="M22.857 2.627a9.77 9.77 0 0 1-2.7.74A4.66 4.66 0 0 0 22.22.777a9.365 9.365 0 0 1-2.972 1.134 4.684 4.684 0 0 0-8.106 3.204c0 .372.032.73.109 1.07-3.896-.19-7.343-2.058-9.659-4.902A4.718 4.718 0 0 0 .95 3.65c0 1.623.836 3.062 2.081 3.895a4.628 4.628 0 0 1-2.117-.577v.051a4.707 4.707 0 0 0 3.755 4.604 4.677 4.677 0 0 1-1.229.155c-.3 0-.603-.018-.887-.08.607 1.855 2.33 3.22 4.378 3.264a9.415 9.415 0 0 1-5.81 1.998c-.384 0-.752-.017-1.121-.064A13.192 13.192 0 0 0 7.189 19c8.622 0 13.337-7.143 13.337-13.334 0-.207-.007-.407-.017-.606a9.348 9.348 0 0 0 2.348-2.433z"></path>
  </symbol>
</svg>