<svg width="188" height="62" viewBox="0 0 188 62" fill="none" xmlns="http://www.w3.org/2000/svg">
<g clip-path="url(#clip0_20_1829)">
<path d="M47.1449 20.2776C45.9201 20.8059 44.5873 21.1862 43.2144 21.3343C44.6398 20.4875 45.7072 19.1496 46.2163 17.5718C44.8788 18.3675 43.4135 18.9254 41.8855 19.2209C41.2469 18.5382 40.4745 17.9943 39.6165 17.6231C38.7584 17.2519 37.8332 17.0614 36.8983 17.0635C33.1158 17.0635 30.0739 20.1295 30.0739 23.8919C30.0739 24.4203 30.1379 24.9486 30.242 25.4569C24.5783 25.1607 19.527 22.455 16.1688 18.3123C15.5569 19.3574 15.2363 20.5475 15.2402 21.7585C15.2402 24.1281 16.445 26.2174 18.2822 27.4462C17.1995 27.4036 16.1422 27.106 15.1962 26.5777V26.6617C15.1962 29.9799 17.5417 32.7297 20.6678 33.3621C20.0808 33.5145 19.477 33.5925 18.8706 33.5942C18.4263 33.5942 18.006 33.5502 17.5818 33.4902C18.4463 36.1959 20.964 38.1612 23.9619 38.2252C21.6164 40.0624 18.6785 41.1431 15.4884 41.1431C14.916 41.1431 14.3877 41.1231 13.8393 41.0591C16.8653 43.0003 20.4556 44.121 24.3221 44.121C36.8743 44.121 43.7427 33.7223 43.7427 24.6964C43.7427 24.4003 43.7427 24.1041 43.7227 23.8079C45.0516 22.8352 46.2163 21.6305 47.1449 20.2776Z" fill="#FF5722"/>
<path d="M110.21 14.582H80.7512C80.0428 14.582 79.4704 15.1544 79.4704 15.8629V45.322C79.4704 46.0304 80.0428 46.6028 80.7512 46.6028H110.21C110.919 46.6028 111.491 46.0304 111.491 45.322V15.8629C111.491 15.1544 110.919 14.582 110.21 14.582ZM106.512 23.9281H103.954C101.949 23.9281 101.561 24.8807 101.561 26.2816V29.3676H106.348L105.723 34.1988H101.561V46.6028H96.5695V34.2028H92.3948V29.3676H96.5695V25.8053C96.5695 21.6706 99.0951 19.4172 102.786 19.4172C104.555 19.4172 106.072 19.5493 106.516 19.6093V23.9281H106.512Z" fill="#FF5722"/>
<path d="M175.198 14.582H145.739C145.031 14.582 144.458 15.1544 144.458 15.8629V45.322C144.458 46.0304 145.031 46.6028 145.739 46.6028H175.198C175.907 46.6028 176.479 46.0304 176.479 45.322V15.8629C176.479 15.1544 175.907 14.582 175.198 14.582ZM153.956 41.8677H149.205V26.5858H153.956V41.8677ZM151.583 24.4965C151.038 24.4965 150.506 24.335 150.053 24.0324C149.6 23.7298 149.247 23.2997 149.039 22.7965C148.83 22.2933 148.776 21.7396 148.882 21.2054C148.988 20.6713 149.25 20.1806 149.636 19.7955C150.021 19.4103 150.511 19.1481 151.046 19.0418C151.58 18.9355 152.133 18.9901 152.637 19.1985C153.14 19.4069 153.57 19.7599 153.872 20.2128C154.175 20.6656 154.337 21.198 154.337 21.7427C154.333 23.2637 153.1 24.4965 151.583 24.4965ZM171.744 41.8677H166.997V34.4349C166.997 32.6618 166.965 30.3843 164.527 30.3843C162.058 30.3843 161.677 32.3135 161.677 34.3068V41.8677H156.934V26.5858H161.489V28.6752H161.553C162.186 27.4744 163.735 26.2056 166.048 26.2056C170.859 26.2056 171.744 29.3716 171.744 33.4863V41.8677Z" fill="#FF5722"/>
</g>
<defs>
<clipPath id="clip0_20_1829">
<rect width="170.96" height="40.9866" fill="white" transform="translate(10 10.0991)"/>
</clipPath>
</defs>
</svg>
